<svg width="310" height="52" viewBox="0 0 310 52" fill="none" xmlns="http://www.w3.org/2000/svg">
<rect width="10" height="3.66667" transform="matrix(1.19249e-08 1 1 -1.19249e-08 7.5 21)" fill="#AD5F79"/>
<rect width="10" height="3.66667" transform="matrix(1.19249e-08 1 1 -1.19249e-08 13.1667 21)" fill="#B05F6C"/>
<rect width="10" height="3.66667" transform="matrix(1.19249e-08 1 1 -1.19249e-08 18.8333 21)" fill="#B25F5E"/>
<rect width="10" height="3.66667" transform="matrix(1.19249e-08 1 1 -1.19249e-08 24.5 21)" fill="#B26050"/>
<rect width="10" height="3.66667" transform="matrix(1.19249e-08 1 1 -1.19249e-08 30.1667 21)" fill="#B06242"/>
<rect width="10" height="3.66667" transform="matrix(1.19249e-08 1 1 -1.19249e-08 35.8333 21)" fill="#AD6536"/>
<rect width="10" height="3.66667" transform="matrix(1.19249e-08 1 1 -1.19249e-08 41.5 21)" fill="#A8682A"/>
<rect width="10" height="3.66667" transform="matrix(1.19249e-08 1 1 -1.19249e-08 47.1667 21)" fill="#A26C21"/>
<rect width="10" height="3.66667" transform="matrix(1.19249e-08 1 1 -1.19249e-08 52.8333 21)" fill="#9A6F1B"/>
<rect width="10" height="3.66667" transform="matrix(1.19249e-08 1 1 -1.19249e-08 58.5 21)" fill="#917319"/>
<rect width="10" height="3.66667" transform="matrix(1.19249e-08 1 1 -1.19249e-08 64.1667 21)" fill="#87771D"/>
<rect width="10" height="3.66667" transform="matrix(1.19249e-08 1 1 -1.19249e-08 69.8333 21)" fill="#7C7A25"/>
<rect width="10" height="3.66667" transform="matrix(1.19249e-08 1 1 -1.19249e-08 75.5 21)" fill="#707D2F"/>
<rect width="10" height="3.66667" transform="matrix(1.19249e-08 1 1 -1.19249e-08 81.1667 21)" fill="#64803A"/>
<rect width="10" height="3.66667" transform="matrix(1.19249e-08 1 1 -1.19249e-08 86.8333 21)" fill="#568245"/>
<rect width="10" height="3.66667" transform="matrix(1.19249e-08 1 1 -1.19249e-08 92.5 21)" fill="#498451"/>
<rect width="10" height="3.66667" transform="matrix(1.19249e-08 1 1 -1.19249e-08 98.1666 21)" fill="#3B855C"/>
<rect width="10" height="3.66667" transform="matrix(1.19249e-08 1 1 -1.19249e-08 103.833 21)" fill="#2C8568"/>
<path d="M127.203 35.9219C125.457 35.9219 123.951 35.6055 122.686 34.9727C121.42 34.3281 120.447 33.4082 119.768 32.2129C119.088 31.0176 118.748 29.582 118.748 27.9062C118.748 26.2539 119.018 24.6836 119.557 23.1953C120.107 21.6953 120.887 20.3711 121.895 19.2227C122.902 18.0742 124.098 17.1719 125.48 16.5156C126.863 15.8477 128.387 15.5137 130.051 15.5137C131.434 15.5137 132.67 15.748 133.76 16.2168C134.861 16.6738 135.729 17.3301 136.361 18.1855C136.994 19.0293 137.311 20.0488 137.311 21.2441C137.311 22.4629 136.953 23.4707 136.238 24.2676C135.523 25.0527 134.469 25.668 133.074 26.1133C131.68 26.5469 129.963 26.8516 127.924 27.0273C125.885 27.2031 123.541 27.291 120.893 27.291L121.438 24.1094C123.676 24.1094 125.51 24.0742 126.939 24.0039C128.381 23.9219 129.494 23.7812 130.279 23.582C131.076 23.3828 131.627 23.1191 131.932 22.791C132.248 22.4512 132.406 22.0234 132.406 21.5078C132.406 20.8867 132.143 20.3945 131.615 20.0312C131.1 19.668 130.396 19.4863 129.506 19.4863C128.357 19.4863 127.414 19.7852 126.676 20.3828C125.938 20.9805 125.363 21.7305 124.953 22.6328C124.543 23.5352 124.25 24.4727 124.074 25.4453C123.91 26.4062 123.828 27.2559 123.828 27.9941C123.828 28.7441 123.939 29.418 124.162 30.0156C124.396 30.6133 124.789 31.0879 125.34 31.4395C125.891 31.7793 126.641 31.9492 127.59 31.9492C128.586 31.9492 129.465 31.7441 130.227 31.334C131 30.9121 131.557 30.332 131.896 29.5938L136.625 30.2266C135.98 31.9375 134.826 33.3145 133.162 34.3574C131.498 35.4004 129.512 35.9219 127.203 35.9219ZM128.662 13.2109L132.002 7.88477H136.889L132.354 13.2109H128.662ZM146.004 43.2695C144.316 43.2695 142.881 43.0469 141.697 42.6016C140.514 42.1562 139.594 41.5527 138.938 40.791C138.281 40.041 137.889 39.2031 137.76 38.2773L142.365 37.3633C142.459 37.7148 142.641 38.043 142.91 38.3477C143.18 38.6641 143.566 38.9219 144.07 39.1211C144.574 39.332 145.236 39.4375 146.057 39.4375C147.475 39.4375 148.647 39.0977 149.572 38.418C150.51 37.7383 151.096 36.7539 151.33 35.4648L151.928 32.0195L151.453 32.0547C151.113 32.582 150.697 33.0918 150.205 33.584C149.713 34.0645 149.109 34.457 148.395 34.7617C147.68 35.0664 146.813 35.2188 145.793 35.2188C144.481 35.2188 143.303 34.9492 142.26 34.4102C141.229 33.8594 140.414 33.0391 139.816 31.9492C139.231 30.8477 138.938 29.4766 138.938 27.8359C138.938 26.3477 139.149 24.877 139.57 23.4238C139.992 21.9707 140.613 20.6582 141.434 19.4863C142.254 18.3027 143.256 17.3594 144.44 16.6562C145.623 15.9531 146.971 15.6016 148.483 15.6016C149.35 15.6016 150.094 15.7188 150.715 15.9531C151.336 16.1875 151.852 16.498 152.262 16.8848C152.672 17.2598 152.994 17.6641 153.229 18.0977C153.475 18.5195 153.656 18.9238 153.774 19.3105L154.02 19.2754L154.6 15.8477H159.803L156.533 35.5C156.229 37.2695 155.59 38.7285 154.617 39.877C153.645 41.0254 152.42 41.875 150.943 42.4258C149.467 42.9883 147.82 43.2695 146.004 43.2695ZM147.533 31.2109C148.483 31.2109 149.309 30.9824 150.012 30.5254C150.727 30.0684 151.313 29.4707 151.77 28.7324C152.238 27.9824 152.584 27.1621 152.807 26.2715C153.041 25.3809 153.158 24.502 153.158 23.6348C153.158 22.4512 152.895 21.5195 152.367 20.8398C151.84 20.1602 151.043 19.8203 149.977 19.8203C149.063 19.8203 148.248 20.0547 147.533 20.5234C146.83 20.9922 146.238 21.6074 145.758 22.3691C145.277 23.1309 144.914 23.9629 144.668 24.8652C144.434 25.7676 144.316 26.6582 144.316 27.5371C144.316 28.6973 144.58 29.5996 145.108 30.2441C145.647 30.8887 146.455 31.2109 147.533 31.2109ZM167.072 35.834C165.572 35.834 164.278 35.4414 163.188 34.6562C162.11 33.8711 161.342 32.7285 160.885 31.2285C160.428 29.7168 160.381 27.8711 160.744 25.6914C161.119 23.4531 161.793 21.5898 162.766 20.1016C163.738 18.6016 164.893 17.4766 166.229 16.7266C167.565 15.9766 168.959 15.6016 170.412 15.6016C171.526 15.6016 172.416 15.7891 173.084 16.1641C173.764 16.5273 174.285 16.9844 174.649 17.5352C175.012 18.0859 175.27 18.625 175.422 19.1523H175.598L176.143 15.8477H181.399L178.147 35.5H172.961L173.471 32.3535H173.225C172.885 32.8926 172.44 33.4316 171.889 33.9707C171.338 34.498 170.664 34.9434 169.867 35.3066C169.07 35.6582 168.139 35.834 167.072 35.834ZM169.41 31.5977C170.313 31.5977 171.115 31.3516 171.819 30.8594C172.533 30.3555 173.131 29.6641 173.611 28.7852C174.092 27.8945 174.426 26.8633 174.613 25.6914C174.813 24.4961 174.819 23.459 174.631 22.5801C174.455 21.7012 174.092 21.0215 173.541 20.541C172.99 20.0605 172.264 19.8203 171.361 19.8203C170.436 19.8203 169.615 20.0723 168.901 20.5762C168.186 21.0801 167.594 21.7715 167.125 22.6504C166.668 23.5293 166.346 24.543 166.158 25.6914C165.971 26.8398 165.965 27.8594 166.141 28.75C166.317 29.6406 166.674 30.3379 167.213 30.8418C167.764 31.3457 168.496 31.5977 169.41 31.5977ZM187.403 35.623C185.387 35.623 183.981 35.1895 183.184 34.3223C182.387 33.4551 182.129 32.1484 182.41 30.4023L185.908 9.30859H191.182L187.807 29.6816C187.701 30.3027 187.737 30.7598 187.912 31.0527C188.088 31.334 188.44 31.4746 188.967 31.4746C189.248 31.4746 189.471 31.4629 189.635 31.4395C189.799 31.416 189.934 31.3867 190.039 31.3516L190.233 35.2012C189.94 35.2949 189.541 35.3887 189.037 35.4824C188.545 35.5762 188 35.623 187.403 35.623Z" fill="#E6EDF3"/>
<rect width="10" height="4" transform="matrix(1.19249e-08 1 1 -1.19249e-08 202.5 21)" fill="#1C8673"/>
<rect width="10" height="4" transform="matrix(1.19249e-08 1 1 -1.19249e-08 208.5 21)" fill="#0B857E"/>
<rect width="10" height="4" transform="matrix(1.19249e-08 1 1 -1.19249e-08 214.5 21)" fill="#028488"/>
<rect width="10" height="4" transform="matrix(1.19249e-08 1 1 -1.19249e-08 220.5 21)" fill="#088392"/>
<rect width="10" height="4" transform="matrix(1.19249e-08 1 1 -1.19249e-08 226.5 21)" fill="#18829A"/>
<rect width="10" height="4" transform="matrix(1.19249e-08 1 1 -1.19249e-08 232.5 21)" fill="#2880A2"/>
<rect width="10" height="4" transform="matrix(1.19249e-08 1 1 -1.19249e-08 238.5 21)" fill="#367EA8"/>
<rect width="10" height="4" transform="matrix(1.19249e-08 1 1 -1.19249e-08 244.5 21)" fill="#5178B1"/>
<rect width="10" height="4" transform="matrix(1.19249e-08 1 1 -1.19249e-08 250.5 21)" fill="#5E75B3"/>
<rect width="10" height="4" transform="matrix(1.19249e-08 1 1 -1.19249e-08 256.5 21)" fill="#6A72B3"/>
<rect width="10" height="4" transform="matrix(1.19249e-08 1 1 -1.19249e-08 262.5 21)" fill="#756FB2"/>
<rect width="10" height="4" transform="matrix(1.19249e-08 1 1 -1.19249e-08 268.5 21)" fill="#806CAF"/>
<rect width="10" height="4" transform="matrix(1.19249e-08 1 1 -1.19249e-08 274.5 21)" fill="#8A69AA"/>
<rect width="10" height="4" transform="matrix(1.19249e-08 1 1 -1.19249e-08 280.5 21)" fill="#9366A4"/>
<rect width="10" height="4" transform="matrix(1.19249e-08 1 1 -1.19249e-08 286.5 21)" fill="#9B649B"/>
<rect width="10" height="4" transform="matrix(1.19249e-08 1 1 -1.19249e-08 292.5 21)" fill="#A26291"/>
<rect width="10" height="4" transform="matrix(1.19249e-08 1 1 -1.19249e-08 298.5 21)" fill="#A86086"/>
</svg>
