<svg width="879" height="131" viewBox="0 0 879 131" fill="none" xmlns="http://www.w3.org/2000/svg">
<rect width="30" height="12.8889" transform="matrix(1.19249e-08 1 1 -1.19249e-08 20 50.5)" fill="#AD5F79"/>
<rect width="30" height="12.8889" transform="matrix(1.19249e-08 1 1 -1.19249e-08 36.8889 50.5)" fill="#B05F6C"/>
<rect width="30" height="12.8889" transform="matrix(1.19249e-08 1 1 -1.19249e-08 53.7778 50.5)" fill="#B25F5E"/>
<rect width="30" height="12.8889" transform="matrix(1.19249e-08 1 1 -1.19249e-08 70.6667 50.5)" fill="#B26050"/>
<rect width="30" height="12.8889" transform="matrix(1.19249e-08 1 1 -1.19249e-08 87.5555 50.5)" fill="#B06242"/>
<rect width="30" height="12.8889" transform="matrix(1.19249e-08 1 1 -1.19249e-08 104.444 50.5)" fill="#AD6536"/>
<rect width="30" height="12.8889" transform="matrix(1.19249e-08 1 1 -1.19249e-08 121.333 50.5)" fill="#A8682A"/>
<rect width="30" height="12.8889" transform="matrix(1.19249e-08 1 1 -1.19249e-08 138.222 50.5)" fill="#A26C21"/>
<rect width="30" height="12.8889" transform="matrix(1.19249e-08 1 1 -1.19249e-08 155.111 50.5)" fill="#9A6F1B"/>
<rect width="30" height="12.8889" transform="matrix(1.19249e-08 1 1 -1.19249e-08 172 50.5)" fill="#917319"/>
<rect width="30" height="12.8889" transform="matrix(1.19249e-08 1 1 -1.19249e-08 188.889 50.5)" fill="#87771D"/>
<rect width="30" height="12.8889" transform="matrix(1.19249e-08 1 1 -1.19249e-08 205.778 50.5)" fill="#7C7A25"/>
<rect width="30" height="12.8889" transform="matrix(1.19249e-08 1 1 -1.19249e-08 222.667 50.5)" fill="#707D2F"/>
<rect width="30" height="12.8889" transform="matrix(1.19249e-08 1 1 -1.19249e-08 239.556 50.5)" fill="#64803A"/>
<rect width="30" height="12.8889" transform="matrix(1.19249e-08 1 1 -1.19249e-08 256.444 50.5)" fill="#568245"/>
<rect width="30" height="12.8889" transform="matrix(1.19249e-08 1 1 -1.19249e-08 273.333 50.5)" fill="#498451"/>
<rect width="30" height="12.8889" transform="matrix(1.19249e-08 1 1 -1.19249e-08 290.222 50.5)" fill="#3B855C"/>
<rect width="30" height="12.8889" transform="matrix(1.19249e-08 1 1 -1.19249e-08 307.111 50.5)" fill="#2C8568"/>
<path d="M365.875 94.625C361.219 94.625 357.203 93.7812 353.828 92.0938C350.453 90.375 347.859 87.9219 346.047 84.7344C344.234 81.5469 343.328 77.7188 343.328 73.25C343.328 68.8438 344.047 64.6562 345.484 60.6875C346.953 56.6875 349.031 53.1562 351.719 50.0938C354.406 47.0312 357.594 44.625 361.281 42.875C364.969 41.0938 369.031 40.2031 373.469 40.2031C377.156 40.2031 380.453 40.8281 383.359 42.0781C386.297 43.2969 388.609 45.0469 390.297 47.3281C391.984 49.5781 392.828 52.2969 392.828 55.4844C392.828 58.7344 391.875 61.4219 389.969 63.5469C388.062 65.6406 385.25 67.2812 381.531 68.4688C377.812 69.625 373.234 70.4375 367.797 70.9062C362.359 71.375 356.109 71.6094 349.047 71.6094L350.5 63.125C356.469 63.125 361.359 63.0312 365.172 62.8438C369.016 62.625 371.984 62.25 374.078 61.7188C376.203 61.1875 377.672 60.4844 378.484 59.6094C379.328 58.7031 379.75 57.5625 379.75 56.1875C379.75 54.5312 379.047 53.2188 377.641 52.25C376.266 51.2812 374.391 50.7969 372.016 50.7969C368.953 50.7969 366.438 51.5938 364.469 53.1875C362.5 54.7812 360.969 56.7812 359.875 59.1875C358.781 61.5938 358 64.0938 357.531 66.6875C357.094 69.25 356.875 71.5156 356.875 73.4844C356.875 75.4844 357.172 77.2812 357.766 78.875C358.391 80.4688 359.438 81.7344 360.906 82.6719C362.375 83.5781 364.375 84.0312 366.906 84.0312C369.562 84.0312 371.906 83.4844 373.938 82.3906C376 81.2656 377.484 79.7188 378.391 77.75L391 79.4375C389.281 84 386.203 87.6719 381.766 90.4531C377.328 93.2344 372.031 94.625 365.875 94.625ZM369.766 34.0625L378.672 19.8594H391.703L379.609 34.0625H369.766ZM416.011 114.219C411.511 114.219 407.682 113.625 404.526 112.438C401.37 111.25 398.917 109.641 397.167 107.609C395.417 105.609 394.37 103.375 394.026 100.906L406.307 98.4688C406.557 99.4062 407.042 100.281 407.761 101.094C408.479 101.938 409.511 102.625 410.854 103.156C412.198 103.719 413.964 104 416.151 104C419.932 104 423.057 103.094 425.526 101.281C428.026 99.4688 429.589 96.8438 430.214 93.4062L431.807 84.2188L430.542 84.3125C429.636 85.7188 428.526 87.0781 427.214 88.3906C425.901 89.6719 424.292 90.7188 422.386 91.5312C420.479 92.3438 418.167 92.75 415.448 92.75C411.948 92.75 408.807 92.0312 406.026 90.5938C403.276 89.125 401.104 86.9375 399.511 84.0312C397.948 81.0938 397.167 77.4375 397.167 73.0625C397.167 69.0938 397.729 65.1719 398.854 61.2969C399.979 57.4219 401.636 53.9219 403.823 50.7969C406.011 47.6406 408.682 45.125 411.839 43.25C414.995 41.375 418.589 40.4375 422.62 40.4375C424.932 40.4375 426.917 40.75 428.573 41.375C430.229 42 431.604 42.8281 432.698 43.8594C433.792 44.8594 434.651 45.9375 435.276 47.0938C435.932 48.2188 436.417 49.2969 436.729 50.3281L437.386 50.2344L438.932 41.0938H452.807L444.089 93.5C443.276 98.2188 441.573 102.109 438.979 105.172C436.386 108.234 433.12 110.5 429.182 111.969C425.245 113.469 420.854 114.219 416.011 114.219ZM420.089 82.0625C422.62 82.0625 424.823 81.4531 426.698 80.2344C428.604 79.0156 430.167 77.4219 431.386 75.4531C432.636 73.4531 433.557 71.2656 434.151 68.8906C434.776 66.5156 435.089 64.1719 435.089 61.8594C435.089 58.7031 434.386 56.2188 432.979 54.4062C431.573 52.5938 429.448 51.6875 426.604 51.6875C424.167 51.6875 421.995 52.3125 420.089 53.5625C418.214 54.8125 416.636 56.4531 415.354 58.4844C414.073 60.5156 413.104 62.7344 412.448 65.1406C411.823 67.5469 411.511 69.9219 411.511 72.2656C411.511 75.3594 412.214 77.7656 413.62 79.4844C415.057 81.2031 417.214 82.0625 420.089 82.0625ZM472.193 94.3906C468.193 94.3906 464.74 93.3438 461.834 91.25C458.959 89.1562 456.912 86.1094 455.693 82.1094C454.474 78.0781 454.349 73.1562 455.318 67.3438C456.318 61.375 458.115 56.4062 460.709 52.4375C463.302 48.4375 466.381 45.4375 469.943 43.4375C473.506 41.4375 477.224 40.4375 481.099 40.4375C484.068 40.4375 486.443 40.9375 488.224 41.9375C490.037 42.9062 491.427 44.125 492.396 45.5938C493.365 47.0625 494.052 48.5 494.459 49.9062H494.927L496.381 41.0938H510.396L501.724 93.5H487.896L489.256 85.1094H488.599C487.693 86.5469 486.506 87.9844 485.037 89.4219C483.568 90.8281 481.771 92.0156 479.646 92.9844C477.521 93.9219 475.037 94.3906 472.193 94.3906ZM478.427 83.0938C480.834 83.0938 482.974 82.4375 484.849 81.125C486.756 79.7812 488.349 77.9375 489.631 75.5938C490.912 73.2188 491.802 70.4688 492.302 67.3438C492.834 64.1562 492.849 61.3906 492.349 59.0469C491.881 56.7031 490.912 54.8906 489.443 53.6094C487.974 52.3281 486.037 51.6875 483.631 51.6875C481.162 51.6875 478.974 52.3594 477.068 53.7031C475.162 55.0469 473.584 56.8906 472.334 59.2344C471.115 61.5781 470.256 64.2812 469.756 67.3438C469.256 70.4062 469.24 73.125 469.709 75.5C470.177 77.875 471.131 79.7344 472.568 81.0781C474.037 82.4219 475.99 83.0938 478.427 83.0938ZM526.407 93.8281C521.032 93.8281 517.282 92.6719 515.157 90.3594C513.032 88.0469 512.344 84.5625 513.094 79.9062L522.423 23.6562H536.485L527.485 77.9844C527.204 79.6406 527.298 80.8594 527.766 81.6406C528.235 82.3906 529.173 82.7656 530.579 82.7656C531.329 82.7656 531.923 82.7344 532.36 82.6719C532.798 82.6094 533.157 82.5312 533.438 82.4375L533.954 92.7031C533.173 92.9531 532.11 93.2031 530.766 93.4531C529.454 93.7031 528.001 93.8281 526.407 93.8281Z" fill="#E6EDF3"/>
<rect width="30" height="13.8824" transform="matrix(1.19249e-08 1 1 -1.19249e-08 559 50.5)" fill="#1C8673"/>
<rect width="30" height="13.8824" transform="matrix(1.19249e-08 1 1 -1.19249e-08 576.882 50.5)" fill="#0B857E"/>
<rect width="30" height="13.8824" transform="matrix(1.19249e-08 1 1 -1.19249e-08 594.765 50.5)" fill="#028488"/>
<rect width="30" height="13.8824" transform="matrix(1.19249e-08 1 1 -1.19249e-08 612.647 50.5)" fill="#088392"/>
<rect width="30" height="13.8824" transform="matrix(1.19249e-08 1 1 -1.19249e-08 630.529 50.5)" fill="#18829A"/>
<rect width="30" height="13.8824" transform="matrix(1.19249e-08 1 1 -1.19249e-08 648.412 50.5)" fill="#2880A2"/>
<rect width="30" height="13.8824" transform="matrix(1.19249e-08 1 1 -1.19249e-08 666.294 50.5)" fill="#367EA8"/>
<rect width="30" height="13.8824" transform="matrix(1.19249e-08 1 1 -1.19249e-08 684.176 50.5)" fill="#5178B1"/>
<rect width="30" height="13.8824" transform="matrix(1.19249e-08 1 1 -1.19249e-08 702.059 50.5)" fill="#5E75B3"/>
<rect width="30" height="13.8824" transform="matrix(1.19249e-08 1 1 -1.19249e-08 719.941 50.5)" fill="#6A72B3"/>
<rect width="30" height="13.8823" transform="matrix(1.19249e-08 1 1 -1.19249e-08 737.824 50.5)" fill="#756FB2"/>
<rect width="30" height="13.8824" transform="matrix(1.19249e-08 1 1 -1.19249e-08 755.706 50.5)" fill="#806CAF"/>
<rect width="30" height="13.8824" transform="matrix(1.19249e-08 1 1 -1.19249e-08 773.588 50.5)" fill="#8A69AA"/>
<rect width="30" height="13.8824" transform="matrix(1.19249e-08 1 1 -1.19249e-08 791.471 50.5)" fill="#9366A4"/>
<rect width="30" height="13.8824" transform="matrix(1.19249e-08 1 1 -1.19249e-08 809.353 50.5)" fill="#9B649B"/>
<rect width="30" height="13.8824" transform="matrix(1.19249e-08 1 1 -1.19249e-08 827.235 50.5)" fill="#A26291"/>
<rect width="30" height="13.8824" transform="matrix(1.19249e-08 1 1 -1.19249e-08 845.118 50.5)" fill="#A86086"/>
</svg>
