<svg width="440" height="65" viewBox="0 0 440 65" fill="none" xmlns="http://www.w3.org/2000/svg">
<rect width="15" height="6.44444" transform="matrix(1.19249e-08 1 1 -1.19249e-08 10 25)" fill="#AD5F79"/>
<rect width="15" height="6.44444" transform="matrix(1.19249e-08 1 1 -1.19249e-08 18.4445 25)" fill="#B05F6C"/>
<rect width="15" height="6.44444" transform="matrix(1.19249e-08 1 1 -1.19249e-08 26.8889 25)" fill="#B25F5E"/>
<rect width="15" height="6.44444" transform="matrix(1.19249e-08 1 1 -1.19249e-08 35.3333 25)" fill="#B26050"/>
<rect width="15" height="6.44445" transform="matrix(1.19249e-08 1 1 -1.19249e-08 43.7778 25)" fill="#B06242"/>
<rect width="15" height="6.44445" transform="matrix(1.19249e-08 1 1 -1.19249e-08 52.2222 25)" fill="#AD6536"/>
<rect width="15" height="6.44445" transform="matrix(1.19249e-08 1 1 -1.19249e-08 60.6667 25)" fill="#A8682A"/>
<rect width="15" height="6.44445" transform="matrix(1.19249e-08 1 1 -1.19249e-08 69.1111 25)" fill="#A26C21"/>
<rect width="15" height="6.44445" transform="matrix(1.19249e-08 1 1 -1.19249e-08 77.5555 25)" fill="#9A6F1B"/>
<rect width="15" height="6.44445" transform="matrix(1.19249e-08 1 1 -1.19249e-08 86 25)" fill="#917319"/>
<rect width="15" height="6.44445" transform="matrix(1.19249e-08 1 1 -1.19249e-08 94.4444 25)" fill="#87771D"/>
<rect width="15" height="6.44445" transform="matrix(1.19249e-08 1 1 -1.19249e-08 102.889 25)" fill="#7C7A25"/>
<rect width="15" height="6.44445" transform="matrix(1.19249e-08 1 1 -1.19249e-08 111.333 25)" fill="#707D2F"/>
<rect width="15" height="6.44445" transform="matrix(1.19249e-08 1 1 -1.19249e-08 119.778 25)" fill="#64803A"/>
<rect width="15" height="6.44445" transform="matrix(1.19249e-08 1 1 -1.19249e-08 128.222 25)" fill="#568245"/>
<rect width="15" height="6.44445" transform="matrix(1.19249e-08 1 1 -1.19249e-08 136.667 25)" fill="#498451"/>
<rect width="15" height="6.44445" transform="matrix(1.19249e-08 1 1 -1.19249e-08 145.111 25)" fill="#3B855C"/>
<rect width="15" height="6.44445" transform="matrix(1.19249e-08 1 1 -1.19249e-08 153.556 25)" fill="#2C8568"/>
<path d="M182.938 46.5625C180.609 46.5625 178.602 46.1406 176.914 45.2969C175.227 44.4375 173.93 43.2109 173.023 41.6172C172.117 40.0234 171.664 38.1094 171.664 35.875C171.664 33.6719 172.023 31.5781 172.742 29.5938C173.477 27.5938 174.516 25.8281 175.859 24.2969C177.203 22.7656 178.797 21.5625 180.641 20.6875C182.484 19.7969 184.516 19.3516 186.734 19.3516C188.578 19.3516 190.227 19.6641 191.68 20.2891C193.148 20.8984 194.305 21.7734 195.148 22.9141C195.992 24.0391 196.414 25.3984 196.414 26.9922C196.414 28.6172 195.938 29.9609 194.984 31.0234C194.031 32.0703 192.625 32.8906 190.766 33.4844C188.906 34.0625 186.617 34.4688 183.898 34.7031C181.18 34.9375 178.055 35.0547 174.523 35.0547L175.25 30.8125C178.234 30.8125 180.68 30.7656 182.586 30.6719C184.508 30.5625 185.992 30.375 187.039 30.1094C188.102 29.8438 188.836 29.4922 189.242 29.0547C189.664 28.6016 189.875 28.0312 189.875 27.3438C189.875 26.5156 189.523 25.8594 188.82 25.375C188.133 24.8906 187.195 24.6484 186.008 24.6484C184.477 24.6484 183.219 25.0469 182.234 25.8438C181.25 26.6406 180.484 27.6406 179.938 28.8438C179.391 30.0469 179 31.2969 178.766 32.5938C178.547 33.875 178.438 35.0078 178.438 35.9922C178.438 36.9922 178.586 37.8906 178.883 38.6875C179.195 39.4844 179.719 40.1172 180.453 40.5859C181.188 41.0391 182.188 41.2656 183.453 41.2656C184.781 41.2656 185.953 40.9922 186.969 40.4453C188 39.8828 188.742 39.1094 189.195 38.125L195.5 38.9688C194.641 41.25 193.102 43.0859 190.883 44.4766C188.664 45.8672 186.016 46.5625 182.938 46.5625ZM184.883 16.2812L189.336 9.17969H195.852L189.805 16.2812H184.883ZM208.005 56.3594C205.755 56.3594 203.841 56.0625 202.263 55.4688C200.685 54.875 199.458 54.0703 198.583 53.0547C197.708 52.0547 197.185 50.9375 197.013 49.7031L203.154 48.4844C203.279 48.9531 203.521 49.3906 203.88 49.7969C204.24 50.2188 204.755 50.5625 205.427 50.8281C206.099 51.1094 206.982 51.25 208.076 51.25C209.966 51.25 211.529 50.7969 212.763 49.8906C214.013 48.9844 214.794 47.6719 215.107 45.9531L215.904 41.3594L215.271 41.4062C214.818 42.1094 214.263 42.7891 213.607 43.4453C212.951 44.0859 212.146 44.6094 211.193 45.0156C210.24 45.4219 209.083 45.625 207.724 45.625C205.974 45.625 204.404 45.2656 203.013 44.5469C201.638 43.8125 200.552 42.7188 199.755 41.2656C198.974 39.7969 198.583 37.9688 198.583 35.7812C198.583 33.7969 198.865 31.8359 199.427 29.8984C199.99 27.9609 200.818 26.2109 201.912 24.6484C203.005 23.0703 204.341 21.8125 205.919 20.875C207.497 19.9375 209.294 19.4688 211.31 19.4688C212.466 19.4688 213.458 19.625 214.287 19.9375C215.115 20.25 215.802 20.6641 216.349 21.1797C216.896 21.6797 217.326 22.2188 217.638 22.7969C217.966 23.3594 218.208 23.8984 218.365 24.4141L218.693 24.3672L219.466 19.7969H226.404L222.044 46C221.638 48.3594 220.787 50.3047 219.49 51.8359C218.193 53.3672 216.56 54.5 214.591 55.2344C212.622 55.9844 210.427 56.3594 208.005 56.3594ZM210.044 40.2812C211.31 40.2812 212.412 39.9766 213.349 39.3672C214.302 38.7578 215.083 37.9609 215.693 36.9766C216.318 35.9766 216.779 34.8828 217.076 33.6953C217.388 32.5078 217.544 31.3359 217.544 30.1797C217.544 28.6016 217.193 27.3594 216.49 26.4531C215.787 25.5469 214.724 25.0938 213.302 25.0938C212.083 25.0938 210.997 25.4062 210.044 26.0312C209.107 26.6562 208.318 27.4766 207.677 28.4922C207.037 29.5078 206.552 30.6172 206.224 31.8203C205.912 33.0234 205.755 34.2109 205.755 35.3828C205.755 36.9297 206.107 38.1328 206.81 38.9922C207.529 39.8516 208.607 40.2812 210.044 40.2812ZM236.097 46.4453C234.097 46.4453 232.37 45.9219 230.917 44.875C229.479 43.8281 228.456 42.3047 227.847 40.3047C227.237 38.2891 227.175 35.8281 227.659 32.9219C228.159 29.9375 229.057 27.4531 230.354 25.4688C231.651 23.4688 233.19 21.9688 234.972 20.9688C236.753 19.9688 238.612 19.4688 240.55 19.4688C242.034 19.4688 243.222 19.7188 244.112 20.2188C245.018 20.7031 245.714 21.3125 246.198 22.0469C246.682 22.7812 247.026 23.5 247.229 24.2031H247.464L248.19 19.7969H255.198L250.862 46H243.948L244.628 41.8047H244.3C243.847 42.5234 243.253 43.2422 242.518 43.9609C241.784 44.6641 240.886 45.2578 239.823 45.7422C238.761 46.2109 237.518 46.4453 236.097 46.4453ZM239.214 40.7969C240.417 40.7969 241.487 40.4688 242.425 39.8125C243.378 39.1406 244.175 38.2188 244.815 37.0469C245.456 35.8594 245.901 34.4844 246.151 32.9219C246.417 31.3281 246.425 29.9453 246.175 28.7734C245.94 27.6016 245.456 26.6953 244.722 26.0547C243.987 25.4141 243.018 25.0938 241.815 25.0938C240.581 25.0938 239.487 25.4297 238.534 26.1016C237.581 26.7734 236.792 27.6953 236.167 28.8672C235.557 30.0391 235.128 31.3906 234.878 32.9219C234.628 34.4531 234.62 35.8125 234.854 37C235.089 38.1875 235.565 39.1172 236.284 39.7891C237.018 40.4609 237.995 40.7969 239.214 40.7969ZM263.203 46.1641C260.516 46.1641 258.641 45.5859 257.578 44.4297C256.516 43.2734 256.172 41.5312 256.547 39.2031L261.211 11.0781H268.243L263.743 38.2422C263.602 39.0703 263.649 39.6797 263.883 40.0703C264.118 40.4453 264.586 40.6328 265.289 40.6328C265.664 40.6328 265.961 40.6172 266.18 40.5859C266.399 40.5547 266.578 40.5156 266.719 40.4688L266.977 45.6016C266.586 45.7266 266.055 45.8516 265.383 45.9766C264.727 46.1016 264 46.1641 263.203 46.1641Z" fill="#E6EDF3"/>
<rect width="15" height="6.94118" transform="matrix(1.19249e-08 1 1 -1.19249e-08 280 25)" fill="#1C8673"/>
<rect width="15" height="6.94118" transform="matrix(1.19249e-08 1 1 -1.19249e-08 288.941 25)" fill="#0B857E"/>
<rect width="15" height="6.94118" transform="matrix(1.19249e-08 1 1 -1.19249e-08 297.882 25)" fill="#028488"/>
<rect width="15" height="6.94118" transform="matrix(1.19249e-08 1 1 -1.19249e-08 306.824 25)" fill="#088392"/>
<rect width="15" height="6.94118" transform="matrix(1.19249e-08 1 1 -1.19249e-08 315.765 25)" fill="#18829A"/>
<rect width="15" height="6.94118" transform="matrix(1.19249e-08 1 1 -1.19249e-08 324.706 25)" fill="#2880A2"/>
<rect width="15" height="6.94118" transform="matrix(1.19249e-08 1 1 -1.19249e-08 333.647 25)" fill="#367EA8"/>
<rect width="15" height="6.94118" transform="matrix(1.19249e-08 1 1 -1.19249e-08 342.588 25)" fill="#5178B1"/>
<rect width="15" height="6.94118" transform="matrix(1.19249e-08 1 1 -1.19249e-08 351.529 25)" fill="#5E75B3"/>
<rect width="15" height="6.94118" transform="matrix(1.19249e-08 1 1 -1.19249e-08 360.471 25)" fill="#6A72B3"/>
<rect width="15" height="6.94117" transform="matrix(1.19249e-08 1 1 -1.19249e-08 369.412 25)" fill="#756FB2"/>
<rect width="15" height="6.94118" transform="matrix(1.19249e-08 1 1 -1.19249e-08 378.353 25)" fill="#806CAF"/>
<rect width="15" height="6.94118" transform="matrix(1.19249e-08 1 1 -1.19249e-08 387.294 25)" fill="#8A69AA"/>
<rect width="15" height="6.94118" transform="matrix(1.19249e-08 1 1 -1.19249e-08 396.235 25)" fill="#9366A4"/>
<rect width="15" height="6.94118" transform="matrix(1.19249e-08 1 1 -1.19249e-08 405.176 25)" fill="#9B649B"/>
<rect width="15" height="6.94118" transform="matrix(1.19249e-08 1 1 -1.19249e-08 414.118 25)" fill="#A26291"/>
<rect width="15" height="6.94118" transform="matrix(1.19249e-08 1 1 -1.19249e-08 423.059 25)" fill="#A86086"/>
</svg>
