<svg width="883" height="131" viewBox="0 0 883 131" fill="none" xmlns="http://www.w3.org/2000/svg">
<rect x="20.5" y="80.5" width="30" height="13" transform="rotate(-90 20.5 80.5)" fill="#F8B4C8"/>
<rect x="37.5" y="80.5" width="30" height="13" transform="rotate(-90 37.5 80.5)" fill="#FCB3BC"/>
<rect x="54.5" y="80.5" width="30" height="13" transform="rotate(-90 54.5 80.5)" fill="#FEB3B1"/>
<rect x="71.5" y="80.5" width="30" height="13" transform="rotate(-90 71.5 80.5)" fill="#FFB4A5"/>
<rect x="88.5" y="80.5" width="30" height="13" transform="rotate(-90 88.5 80.5)" fill="#FEB69A"/>
<rect x="105.5" y="80.5" width="30" height="13" transform="rotate(-90 105.5 80.5)" fill="#FBB890"/>
<rect x="122.5" y="80.5" width="30" height="13" transform="rotate(-90 122.5 80.5)" fill="#F6BA88"/>
<rect x="139.5" y="80.5" width="30" height="13" transform="rotate(-90 139.5 80.5)" fill="#F0BD82"/>
<rect x="156.5" y="80.5" width="30" height="13" transform="rotate(-90 156.5 80.5)" fill="#E9C07F"/>
<rect x="173.5" y="80.5" width="30" height="13" transform="rotate(-90 173.5 80.5)" fill="#E0C47E"/>
<rect x="190.5" y="80.5" width="30" height="13" transform="rotate(-90 190.5 80.5)" fill="#D6C781"/>
<rect x="207.5" y="80.5" width="30" height="13" transform="rotate(-90 207.5 80.5)" fill="#CCCA85"/>
<rect x="224.5" y="80.5" width="30" height="13" transform="rotate(-90 224.5 80.5)" fill="#C2CC8C"/>
<rect x="241.5" y="80.5" width="30" height="13" transform="rotate(-90 241.5 80.5)" fill="#B8CE94"/>
<rect x="258.5" y="80.5" width="30" height="13" transform="rotate(-90 258.5 80.5)" fill="#AFD09D"/>
<rect x="275.5" y="80.5" width="30" height="13" transform="rotate(-90 275.5 80.5)" fill="#A6D1A6"/>
<rect x="292.5" y="80.5" width="30" height="13" transform="rotate(-90 292.5 80.5)" fill="#9FD2B0"/>
<rect x="309.5" y="80.5" width="30" height="13" transform="rotate(-90 309.5 80.5)" fill="#99D2BA"/>
<path d="M375.429 94.625C370.992 94.625 367.132 93.8125 363.851 92.1875C360.601 90.5312 358.148 88.0156 356.492 84.6406C354.836 81.2344 354.164 76.9531 354.476 71.7969C354.726 67.3906 355.601 63.4062 357.101 59.8438C358.632 56.2812 360.679 53.25 363.242 50.75C365.836 48.2188 368.82 46.2812 372.195 44.9375C375.601 43.5625 379.273 42.875 383.211 42.875C386.804 42.875 389.992 43.4375 392.773 44.5625C395.586 45.6562 397.789 47.2969 399.382 49.4844C401.007 51.6719 401.82 54.3906 401.82 57.6406C401.82 60.9844 400.898 63.7031 399.054 65.7969C397.242 67.8906 394.57 69.5 391.039 70.625C387.507 71.7188 383.148 72.4844 377.961 72.9219C372.804 73.3594 366.851 73.5781 360.101 73.5781L361.414 65.3281C367.32 65.3281 372.164 65.1719 375.945 64.8594C379.726 64.5469 382.679 64.0938 384.804 63.5C386.929 62.875 388.414 62.0938 389.257 61.1562C390.101 60.1875 390.523 59.0625 390.523 57.7812C390.523 56.0625 389.804 54.7188 388.367 53.75C386.929 52.75 384.804 52.25 381.992 52.25C379.023 52.25 376.523 52.8125 374.492 53.9375C372.492 55.0625 370.882 56.5781 369.664 58.4844C368.476 60.3906 367.601 62.5469 367.039 64.9531C366.507 67.3281 366.195 69.7812 366.101 72.3125C365.976 74.6875 366.132 76.8594 366.57 78.8281C367.039 80.7969 368.039 82.375 369.57 83.5625C371.101 84.75 373.351 85.3438 376.32 85.3438C379.57 85.3438 382.257 84.6562 384.382 83.2812C386.507 81.9062 388.023 80.1406 388.929 77.9844H400.179C398.429 82.9531 395.445 86.9688 391.226 90.0312C387.007 93.0938 381.742 94.625 375.429 94.625ZM379.32 36.3594L389.211 22.625H401.257L388.039 36.3594H379.32ZM422.424 113.75C418.018 113.75 414.284 113.109 411.221 111.828C408.159 110.578 405.862 108.781 404.331 106.438C402.799 104.094 402.065 101.312 402.127 98.0938H413.471C413.627 99.5 414.065 100.688 414.784 101.656C415.534 102.625 416.565 103.359 417.877 103.859C419.19 104.359 420.768 104.609 422.612 104.609C426.487 104.609 429.69 103.547 432.221 101.422C434.784 99.2969 436.362 96.3438 436.956 92.5625L438.034 85.3906H437.987C436.612 87.3281 435.112 88.9219 433.487 90.1719C431.893 91.4219 430.174 92.3438 428.331 92.9375C426.487 93.5312 424.502 93.8281 422.377 93.8281C418.565 93.8281 415.299 92.9844 412.581 91.2969C409.862 89.6094 407.768 87.2656 406.299 84.2656C404.831 81.2344 404.096 77.7188 404.096 73.7188C404.096 69.875 404.69 66.1406 405.877 62.5156C407.065 58.8594 408.752 55.5625 410.94 52.625C413.159 49.6875 415.815 47.3594 418.909 45.6406C422.034 43.8906 425.534 43.0156 429.409 43.0156C431.096 43.0156 432.674 43.1875 434.143 43.5312C435.612 43.875 436.956 44.4062 438.174 45.125C439.424 45.8438 440.518 46.7344 441.456 47.7969C442.393 48.8594 443.143 50.1094 443.706 51.5469H443.752L444.971 44H456.69L448.674 92.6094C447.831 97.7344 446.159 101.844 443.659 104.938C441.19 108.031 438.112 110.266 434.424 111.641C430.768 113.047 426.768 113.75 422.424 113.75ZM425.471 84.0781C428.002 84.0781 430.284 83.5 432.315 82.3438C434.346 81.1562 436.081 79.5938 437.518 77.6562C438.956 75.6875 440.049 73.5156 440.799 71.1406C441.581 68.7344 441.971 66.2812 441.971 63.7812C441.971 60.3438 441.096 57.6406 439.346 55.6719C437.596 53.6719 435.143 52.6719 431.987 52.6719C429.424 52.6719 427.143 53.2812 425.143 54.5C423.174 55.6875 421.502 57.2812 420.127 59.2812C418.784 61.2812 417.752 63.5 417.034 65.9375C416.346 68.375 416.002 70.8594 416.002 73.3906C416.002 76.8906 416.831 79.5469 418.487 81.3594C420.174 83.1719 422.502 84.0781 425.471 84.0781ZM475.091 94.4844C470.81 94.4844 467.232 93.4062 464.357 91.25C461.482 89.0938 459.482 86.0781 458.357 82.2031C457.232 78.3281 457.091 73.8281 457.935 68.7031C458.779 63.6406 460.404 59.1719 462.81 55.2969C465.247 51.4219 468.247 48.4062 471.81 46.25C475.404 44.0938 479.31 43.0156 483.529 43.0156C485.685 43.0156 487.654 43.3125 489.435 43.9062C491.247 44.4688 492.81 45.3438 494.122 46.5312C495.466 47.6875 496.513 49.1406 497.263 50.8906H497.404L498.529 44H510.107L501.904 93.5H490.326L491.544 86.0469H491.404C490.091 87.9219 488.576 89.4844 486.857 90.7344C485.138 91.9844 483.294 92.9219 481.326 93.5469C479.357 94.1719 477.279 94.4844 475.091 94.4844ZM479.497 84.5938C482.091 84.5938 484.451 83.9531 486.576 82.6719C488.701 81.3594 490.482 79.5156 491.919 77.1406C493.388 74.7344 494.388 71.9219 494.919 68.7031C495.451 65.4844 495.372 62.6875 494.685 60.3125C494.029 57.9375 492.857 56.0938 491.169 54.7812C489.482 53.4688 487.357 52.8125 484.794 52.8125C482.357 52.8125 480.107 53.4375 478.044 54.6875C476.013 55.9062 474.294 57.7031 472.888 60.0781C471.482 62.4219 470.482 65.2969 469.888 68.7031C469.326 72.1094 469.357 75 469.982 77.375C470.638 79.75 471.779 81.5469 473.404 82.7656C475.06 83.9844 477.091 84.5938 479.497 84.5938ZM524.43 93.5C519.149 93.5 515.508 92.5312 513.508 90.5938C511.508 88.625 510.883 85.375 511.633 80.8438L521.149 23.6562H532.961L523.68 79.6719C523.399 81.3906 523.524 82.5781 524.055 83.2344C524.617 83.8594 525.742 84.1719 527.43 84.1719C527.711 84.1719 528.039 84.1719 528.414 84.1719C528.821 84.1719 529.149 84.1719 529.399 84.1719L527.852 93.5C527.289 93.5 526.711 93.5 526.117 93.5C525.555 93.5 524.992 93.5 524.43 93.5Z" fill="#1F2328"/>
<rect x="562.5" y="80.5" width="30" height="12.8889" transform="rotate(-90 562.5 80.5)" fill="#96D2C3"/>
<rect x="579.389" y="80.5" width="30" height="12.8889" transform="rotate(-90 579.389 80.5)" fill="#93D2CB"/>
<rect x="596.278" y="80.5" width="30" height="12.8889" transform="rotate(-90 596.278 80.5)" fill="#93D1D4"/>
<rect x="613.167" y="80.5" width="30" height="12.8889" transform="rotate(-90 613.167 80.5)" fill="#94D0DB"/>
<rect x="630.056" y="80.5" width="30" height="12.8889" transform="rotate(-90 630.056 80.5)" fill="#97CFE1"/>
<rect x="646.944" y="80.5" width="30" height="12.8889" transform="rotate(-90 646.944 80.5)" fill="#9CCDE7"/>
<rect x="663.833" y="80.5" width="30" height="12.8889" transform="rotate(-90 663.833 80.5)" fill="#A1CCEC"/>
<rect x="680.722" y="80.5" width="30" height="12.8889" transform="rotate(-90 680.722 80.5)" fill="#A7CAF0"/>
<rect x="697.611" y="80.5" width="30" height="12.8889" transform="rotate(-90 697.611 80.5)" fill="#AFC8F3"/>
<rect x="714.5" y="80.5" width="30" height="12.8889" transform="rotate(-90 714.5 80.5)" fill="#B6C6F4"/>
<rect x="731.389" y="80.5" width="30" height="12.8889" transform="rotate(-90 731.389 80.5)" fill="#BEC3F5"/>
<rect x="748.278" y="80.5" width="30" height="12.8889" transform="rotate(-90 748.278 80.5)" fill="#C6C1F4"/>
<rect x="765.167" y="80.5" width="30" height="12.8889" transform="rotate(-90 765.167 80.5)" fill="#CFBFF2"/>
<rect x="782.056" y="80.5" width="30" height="12.8889" transform="rotate(-90 782.056 80.5)" fill="#D7BCEE"/>
<rect x="798.944" y="80.5" width="30" height="12.8889" transform="rotate(-90 798.944 80.5)" fill="#DFBAE9"/>
<rect x="815.833" y="80.5" width="30" height="12.8889" transform="rotate(-90 815.833 80.5)" fill="#E6B8E3"/>
<rect x="832.722" y="80.5" width="30" height="12.8889" transform="rotate(-90 832.722 80.5)" fill="#EDB6DB"/>
<rect x="849.611" y="80.5" width="30" height="12.8889" transform="rotate(-90 849.611 80.5)" fill="#F3B5D2"/>
</svg>
