<svg width="310" height="52" viewBox="0 0 310 52" fill="none" xmlns="http://www.w3.org/2000/svg">
<rect x="10" y="31" width="10" height="3.72222" transform="rotate(-90 10 31)" fill="#F8B4C8"/>
<rect x="15.7222" y="31" width="10" height="3.72222" transform="rotate(-90 15.7222 31)" fill="#FCB3BC"/>
<rect x="21.4444" y="31" width="10" height="3.72222" transform="rotate(-90 21.4444 31)" fill="#FEB3B1"/>
<rect x="27.1667" y="31" width="10" height="3.72222" transform="rotate(-90 27.1667 31)" fill="#FFB4A5"/>
<rect x="32.8889" y="31" width="10" height="3.72222" transform="rotate(-90 32.8889 31)" fill="#FEB69A"/>
<rect x="38.6111" y="31" width="10" height="3.72222" transform="rotate(-90 38.6111 31)" fill="#FBB890"/>
<rect x="44.3333" y="31" width="10" height="3.72222" transform="rotate(-90 44.3333 31)" fill="#F6BA88"/>
<rect x="50.0556" y="31" width="10" height="3.72222" transform="rotate(-90 50.0556 31)" fill="#F0BD82"/>
<rect x="55.7778" y="31" width="10" height="3.72222" transform="rotate(-90 55.7778 31)" fill="#E9C07F"/>
<rect x="61.5" y="31" width="10" height="3.72222" transform="rotate(-90 61.5 31)" fill="#E0C47E"/>
<rect x="67.2222" y="31" width="10" height="3.72222" transform="rotate(-90 67.2222 31)" fill="#D6C781"/>
<rect x="72.9444" y="31" width="10" height="3.72222" transform="rotate(-90 72.9444 31)" fill="#CCCA85"/>
<rect x="78.6667" y="31" width="10" height="3.72222" transform="rotate(-90 78.6667 31)" fill="#C2CC8C"/>
<rect x="84.3889" y="31" width="10" height="3.72222" transform="rotate(-90 84.3889 31)" fill="#B8CE94"/>
<rect x="90.1111" y="31" width="10" height="3.72222" transform="rotate(-90 90.1111 31)" fill="#AFD09D"/>
<rect x="95.8333" y="31" width="10" height="3.72222" transform="rotate(-90 95.8333 31)" fill="#A6D1A6"/>
<rect x="101.556" y="31" width="10" height="3.72222" transform="rotate(-90 101.556 31)" fill="#9FD2B0"/>
<rect x="107.278" y="31" width="10" height="3.72222" transform="rotate(-90 107.278 31)" fill="#99D2BA"/>
<path d="M129.877 35.9219C128.213 35.9219 126.766 35.6172 125.535 35.0078C124.316 34.3867 123.396 33.4434 122.775 32.1777C122.154 30.9004 121.902 29.2949 122.02 27.3613C122.113 25.709 122.441 24.2148 123.004 22.8789C123.578 21.543 124.346 20.4062 125.307 19.4688C126.279 18.5195 127.398 17.793 128.664 17.2891C129.941 16.7734 131.318 16.5156 132.795 16.5156C134.143 16.5156 135.338 16.7266 136.381 17.1484C137.436 17.5586 138.262 18.1738 138.859 18.9941C139.469 19.8145 139.773 20.834 139.773 22.0527C139.773 23.3066 139.428 24.3262 138.736 25.1113C138.057 25.8965 137.055 26.5 135.73 26.9219C134.406 27.332 132.771 27.6191 130.826 27.7832C128.893 27.9473 126.66 28.0293 124.129 28.0293L124.621 24.9355C126.836 24.9355 128.652 24.877 130.07 24.7598C131.488 24.6426 132.596 24.4727 133.393 24.25C134.189 24.0156 134.746 23.7227 135.062 23.3711C135.379 23.0078 135.537 22.5859 135.537 22.1055C135.537 21.4609 135.268 20.957 134.729 20.5938C134.189 20.2188 133.393 20.0312 132.338 20.0312C131.225 20.0312 130.287 20.2422 129.525 20.6641C128.775 21.0859 128.172 21.6543 127.715 22.3691C127.27 23.084 126.941 23.8926 126.73 24.7949C126.531 25.6855 126.414 26.6055 126.379 27.5547C126.332 28.4453 126.391 29.2598 126.555 29.998C126.73 30.7363 127.105 31.3281 127.68 31.7734C128.254 32.2188 129.098 32.4414 130.211 32.4414C131.43 32.4414 132.438 32.1836 133.234 31.668C134.031 31.1523 134.6 30.4902 134.939 29.6816H139.158C138.502 31.5449 137.383 33.0508 135.801 34.1992C134.219 35.3477 132.244 35.9219 129.877 35.9219ZM131.336 14.0723L135.045 8.92188H139.562L134.605 14.0723H131.336ZM147.5 43.0938C145.848 43.0938 144.447 42.8535 143.299 42.373C142.15 41.9043 141.289 41.2305 140.715 40.3516C140.141 39.4727 139.865 38.4297 139.889 37.2227H144.143C144.201 37.75 144.365 38.1953 144.635 38.5586C144.916 38.9219 145.303 39.1973 145.795 39.3848C146.287 39.5723 146.879 39.666 147.57 39.666C149.024 39.666 150.225 39.2676 151.174 38.4707C152.135 37.6738 152.727 36.5664 152.949 35.1484L153.354 32.459H153.336C152.82 33.1855 152.258 33.7832 151.649 34.252C151.051 34.7207 150.406 35.0664 149.715 35.2891C149.024 35.5117 148.279 35.623 147.483 35.623C146.053 35.623 144.828 35.3066 143.809 34.6738C142.789 34.041 142.004 33.1621 141.453 32.0371C140.902 30.9004 140.627 29.582 140.627 28.082C140.627 26.6406 140.85 25.2402 141.295 23.8809C141.74 22.5098 142.373 21.2734 143.193 20.1719C144.025 19.0703 145.022 18.1973 146.182 17.5527C147.354 16.8965 148.666 16.5684 150.119 16.5684C150.752 16.5684 151.344 16.6328 151.895 16.7617C152.445 16.8906 152.949 17.0898 153.406 17.3594C153.875 17.6289 154.285 17.9629 154.637 18.3613C154.988 18.7598 155.27 19.2285 155.481 19.7676H155.498L155.955 16.9375H160.35L157.344 35.166C157.027 37.0879 156.4 38.6289 155.463 39.7891C154.537 40.9492 153.383 41.7871 152 42.3027C150.629 42.8301 149.129 43.0938 147.5 43.0938ZM148.643 31.9668C149.592 31.9668 150.447 31.75 151.209 31.3164C151.971 30.8711 152.621 30.2852 153.16 29.5586C153.699 28.8203 154.109 28.0059 154.391 27.1152C154.684 26.2129 154.83 25.293 154.83 24.3555C154.83 23.0664 154.502 22.0527 153.846 21.3145C153.19 20.5645 152.27 20.1895 151.086 20.1895C150.125 20.1895 149.27 20.418 148.52 20.875C147.781 21.3203 147.154 21.918 146.639 22.668C146.135 23.418 145.748 24.25 145.479 25.1641C145.221 26.0781 145.092 27.0098 145.092 27.959C145.092 29.2715 145.402 30.2676 146.024 30.9473C146.656 31.627 147.529 31.9668 148.643 31.9668ZM167.25 35.8691C165.645 35.8691 164.303 35.4648 163.225 34.6562C162.147 33.8477 161.397 32.7168 160.975 31.2637C160.553 29.8105 160.5 28.123 160.817 26.2012C161.133 24.3027 161.742 22.627 162.645 21.1738C163.559 19.7207 164.684 18.5898 166.02 17.7812C167.367 16.9727 168.832 16.5684 170.414 16.5684C171.223 16.5684 171.961 16.6797 172.629 16.9023C173.309 17.1133 173.895 17.4414 174.387 17.8867C174.891 18.3203 175.283 18.8652 175.565 19.5215H175.617L176.039 16.9375H180.381L177.305 35.5H172.963L173.42 32.7051H173.367C172.875 33.4082 172.307 33.9941 171.662 34.4629C171.018 34.9316 170.326 35.2832 169.588 35.5176C168.85 35.752 168.07 35.8691 167.25 35.8691ZM168.903 32.1602C169.875 32.1602 170.76 31.9199 171.557 31.4395C172.354 30.9473 173.022 30.2559 173.561 29.3652C174.111 28.4629 174.486 27.4082 174.686 26.2012C174.885 24.9941 174.856 23.9453 174.598 23.0547C174.352 22.1641 173.912 21.4727 173.279 20.9805C172.647 20.4883 171.85 20.2422 170.889 20.2422C169.975 20.2422 169.131 20.4766 168.358 20.9453C167.596 21.4023 166.951 22.0762 166.424 22.9668C165.897 23.8457 165.522 24.9238 165.299 26.2012C165.088 27.4785 165.1 28.5625 165.334 29.4531C165.58 30.3438 166.008 31.0176 166.617 31.4746C167.238 31.9316 168 32.1602 168.903 32.1602ZM185.752 35.5C183.772 35.5 182.406 35.1367 181.656 34.4102C180.906 33.6719 180.672 32.4531 180.953 30.7539L184.522 9.30859H188.951L185.471 30.3145C185.365 30.959 185.412 31.4043 185.612 31.6504C185.822 31.8848 186.244 32.002 186.877 32.002C186.983 32.002 187.106 32.002 187.246 32.002C187.399 32.002 187.522 32.002 187.615 32.002L187.035 35.5C186.824 35.5 186.608 35.5 186.385 35.5C186.174 35.5 185.963 35.5 185.752 35.5Z" fill="#1F2328"/>
<rect x="200" y="31" width="10" height="3.66667" transform="rotate(-90 200 31)" fill="#96D2C3"/>
<rect x="205.667" y="31" width="10" height="3.66667" transform="rotate(-90 205.667 31)" fill="#93D2CB"/>
<rect x="211.333" y="31" width="10" height="3.66667" transform="rotate(-90 211.333 31)" fill="#93D1D4"/>
<rect x="217" y="31" width="10" height="3.66667" transform="rotate(-90 217 31)" fill="#94D0DB"/>
<rect x="222.667" y="31" width="10" height="3.66667" transform="rotate(-90 222.667 31)" fill="#97CFE1"/>
<rect x="228.333" y="31" width="10" height="3.66667" transform="rotate(-90 228.333 31)" fill="#9CCDE7"/>
<rect x="234" y="31" width="10" height="3.66667" transform="rotate(-90 234 31)" fill="#A1CCEC"/>
<rect x="239.667" y="31" width="10" height="3.66667" transform="rotate(-90 239.667 31)" fill="#A7CAF0"/>
<rect x="245.333" y="31" width="10" height="3.66667" transform="rotate(-90 245.333 31)" fill="#AFC8F3"/>
<rect x="251" y="31" width="10" height="3.66667" transform="rotate(-90 251 31)" fill="#B6C6F4"/>
<rect x="256.667" y="31" width="10" height="3.66667" transform="rotate(-90 256.667 31)" fill="#BEC3F5"/>
<rect x="262.333" y="31" width="10" height="3.66667" transform="rotate(-90 262.333 31)" fill="#C6C1F4"/>
<rect x="268" y="31" width="10" height="3.66667" transform="rotate(-90 268 31)" fill="#CFBFF2"/>
<rect x="273.667" y="31" width="10" height="3.66667" transform="rotate(-90 273.667 31)" fill="#D7BCEE"/>
<rect x="279.333" y="31" width="10" height="3.66667" transform="rotate(-90 279.333 31)" fill="#DFBAE9"/>
<rect x="285" y="31" width="10" height="3.66667" transform="rotate(-90 285 31)" fill="#E6B8E3"/>
<rect x="290.667" y="31" width="10" height="3.66667" transform="rotate(-90 290.667 31)" fill="#EDB6DB"/>
<rect x="296.333" y="31" width="10" height="3.66667" transform="rotate(-90 296.333 31)" fill="#F3B5D2"/>
</svg>
