<svg width="441" height="65" viewBox="0 0 441 65" fill="none" xmlns="http://www.w3.org/2000/svg">
<rect x="10" y="40" width="15" height="6.5" transform="rotate(-90 10 40)" fill="#F8B4C8"/>
<rect x="18.5" y="40" width="15" height="6.5" transform="rotate(-90 18.5 40)" fill="#FCB3BC"/>
<rect x="27" y="40" width="15" height="6.5" transform="rotate(-90 27 40)" fill="#FEB3B1"/>
<rect x="35.5" y="40" width="15" height="6.5" transform="rotate(-90 35.5 40)" fill="#FFB4A5"/>
<rect x="44" y="40" width="15" height="6.5" transform="rotate(-90 44 40)" fill="#FEB69A"/>
<rect x="52.5" y="40" width="15" height="6.5" transform="rotate(-90 52.5 40)" fill="#FBB890"/>
<rect x="61" y="40" width="15" height="6.5" transform="rotate(-90 61 40)" fill="#F6BA88"/>
<rect x="69.5" y="40" width="15" height="6.5" transform="rotate(-90 69.5 40)" fill="#F0BD82"/>
<rect x="78" y="40" width="15" height="6.5" transform="rotate(-90 78 40)" fill="#E9C07F"/>
<rect x="86.5" y="40" width="15" height="6.5" transform="rotate(-90 86.5 40)" fill="#E0C47E"/>
<rect x="95" y="40" width="15" height="6.5" transform="rotate(-90 95 40)" fill="#D6C781"/>
<rect x="103.5" y="40" width="15" height="6.5" transform="rotate(-90 103.5 40)" fill="#CCCA85"/>
<rect x="112" y="40" width="15" height="6.5" transform="rotate(-90 112 40)" fill="#C2CC8C"/>
<rect x="120.5" y="40" width="15" height="6.5" transform="rotate(-90 120.5 40)" fill="#B8CE94"/>
<rect x="129" y="40" width="15" height="6.5" transform="rotate(-90 129 40)" fill="#AFD09D"/>
<rect x="137.5" y="40" width="15" height="6.5" transform="rotate(-90 137.5 40)" fill="#A6D1A6"/>
<rect x="146" y="40" width="15" height="6.5" transform="rotate(-90 146 40)" fill="#9FD2B0"/>
<rect x="154.5" y="40" width="15" height="6.5" transform="rotate(-90 154.5 40)" fill="#99D2BA"/>
<path d="M187.465 46.5625C185.246 46.5625 183.316 46.1562 181.676 45.3438C180.051 44.5156 178.824 43.2578 177.996 41.5703C177.168 39.8672 176.832 37.7266 176.988 35.1484C177.113 32.9453 177.551 30.9531 178.301 29.1719C179.066 27.3906 180.09 25.875 181.371 24.625C182.668 23.3594 184.16 22.3906 185.847 21.7188C187.551 21.0312 189.387 20.6875 191.355 20.6875C193.152 20.6875 194.746 20.9688 196.137 21.5312C197.543 22.0781 198.644 22.8984 199.441 23.9922C200.254 25.0859 200.66 26.4453 200.66 28.0703C200.66 29.7422 200.199 31.1016 199.277 32.1484C198.371 33.1953 197.035 34 195.269 34.5625C193.504 35.1094 191.324 35.4922 188.73 35.7109C186.152 35.9297 183.176 36.0391 179.801 36.0391L180.457 31.9141C183.41 31.9141 185.832 31.8359 187.722 31.6797C189.613 31.5234 191.09 31.2969 192.152 31C193.215 30.6875 193.957 30.2969 194.379 29.8281C194.801 29.3438 195.012 28.7812 195.012 28.1406C195.012 27.2812 194.652 26.6094 193.933 26.125C193.215 25.625 192.152 25.375 190.746 25.375C189.262 25.375 188.012 25.6562 186.996 26.2188C185.996 26.7812 185.191 27.5391 184.582 28.4922C183.988 29.4453 183.551 30.5234 183.269 31.7266C183.004 32.9141 182.847 34.1406 182.801 35.4062C182.738 36.5938 182.816 37.6797 183.035 38.6641C183.269 39.6484 183.769 40.4375 184.535 41.0312C185.301 41.625 186.426 41.9219 187.91 41.9219C189.535 41.9219 190.879 41.5781 191.941 40.8906C193.004 40.2031 193.762 39.3203 194.215 38.2422H199.84C198.965 40.7266 197.472 42.7344 195.363 44.2656C193.254 45.7969 190.621 46.5625 187.465 46.5625ZM189.41 17.4297L194.355 10.5625H200.379L193.769 17.4297H189.41ZM210.962 56.125C208.759 56.125 206.892 55.8047 205.361 55.1641C203.829 54.5391 202.681 53.6406 201.915 52.4688C201.15 51.2969 200.782 49.9062 200.814 48.2969H206.486C206.564 49 206.782 49.5938 207.142 50.0781C207.517 50.5625 208.032 50.9297 208.689 51.1797C209.345 51.4297 210.134 51.5547 211.056 51.5547C212.993 51.5547 214.595 51.0234 215.861 49.9609C217.142 48.8984 217.931 47.4219 218.228 45.5312L218.767 41.9453H218.743C218.056 42.9141 217.306 43.7109 216.493 44.3359C215.697 44.9609 214.837 45.4219 213.915 45.7188C212.993 46.0156 212.001 46.1641 210.939 46.1641C209.032 46.1641 207.4 45.7422 206.04 44.8984C204.681 44.0547 203.634 42.8828 202.9 41.3828C202.165 39.8672 201.798 38.1094 201.798 36.1094C201.798 34.1875 202.095 32.3203 202.689 30.5078C203.282 28.6797 204.126 27.0312 205.22 25.5625C206.329 24.0938 207.657 22.9297 209.204 22.0703C210.767 21.1953 212.517 20.7578 214.454 20.7578C215.298 20.7578 216.087 20.8438 216.822 21.0156C217.556 21.1875 218.228 21.4531 218.837 21.8125C219.462 22.1719 220.009 22.6172 220.478 23.1484C220.947 23.6797 221.322 24.3047 221.603 25.0234H221.626L222.236 21.25H228.095L224.087 45.5547C223.665 48.1172 222.829 50.1719 221.579 51.7188C220.345 53.2656 218.806 54.3828 216.962 55.0703C215.134 55.7734 213.134 56.125 210.962 56.125ZM212.486 41.2891C213.751 41.2891 214.892 41 215.907 40.4219C216.923 39.8281 217.79 39.0469 218.509 38.0781C219.228 37.0938 219.775 36.0078 220.15 34.8203C220.54 33.6172 220.736 32.3906 220.736 31.1406C220.736 29.4219 220.298 28.0703 219.423 27.0859C218.548 26.0859 217.322 25.5859 215.743 25.5859C214.462 25.5859 213.322 25.8906 212.322 26.5C211.337 27.0938 210.501 27.8906 209.814 28.8906C209.142 29.8906 208.626 31 208.267 32.2188C207.923 33.4375 207.751 34.6797 207.751 35.9453C207.751 37.6953 208.165 39.0234 208.993 39.9297C209.837 40.8359 211.001 41.2891 212.486 41.2891ZM237.296 46.4922C235.155 46.4922 233.366 45.9531 231.928 44.875C230.491 43.7969 229.491 42.2891 228.928 40.3516C228.366 38.4141 228.296 36.1641 228.717 33.6016C229.139 31.0703 229.952 28.8359 231.155 26.8984C232.374 24.9609 233.874 23.4531 235.655 22.375C237.452 21.2969 239.405 20.7578 241.514 20.7578C242.592 20.7578 243.577 20.9062 244.467 21.2031C245.374 21.4844 246.155 21.9219 246.811 22.5156C247.483 23.0938 248.007 23.8203 248.382 24.6953H248.452L249.014 21.25H254.803L250.702 46H244.913L245.522 42.2734H245.452C244.796 43.2109 244.038 43.9922 243.178 44.6172C242.319 45.2422 241.397 45.7109 240.413 46.0234C239.428 46.3359 238.389 46.4922 237.296 46.4922ZM239.499 41.5469C240.796 41.5469 241.975 41.2266 243.038 40.5859C244.1 39.9297 244.991 39.0078 245.71 37.8203C246.444 36.6172 246.944 35.2109 247.21 33.6016C247.475 31.9922 247.436 30.5938 247.092 29.4062C246.764 28.2188 246.178 27.2969 245.335 26.6406C244.491 25.9844 243.428 25.6562 242.147 25.6562C240.928 25.6562 239.803 25.9688 238.772 26.5938C237.757 27.2031 236.897 28.1016 236.194 29.2891C235.491 30.4609 234.991 31.8984 234.694 33.6016C234.413 35.3047 234.428 36.75 234.741 37.9375C235.069 39.125 235.639 40.0234 236.452 40.6328C237.28 41.2422 238.296 41.5469 239.499 41.5469ZM261.965 46C259.324 46 257.504 45.5156 256.504 44.5469C255.504 43.5625 255.192 41.9375 255.567 39.6719L260.324 11.0781H266.231L261.59 39.0859C261.449 39.9453 261.512 40.5391 261.777 40.8672C262.059 41.1797 262.621 41.3359 263.465 41.3359C263.606 41.3359 263.77 41.3359 263.957 41.3359C264.16 41.3359 264.324 41.3359 264.449 41.3359L263.676 46C263.395 46 263.106 46 262.809 46C262.527 46 262.246 46 261.965 46Z" fill="#1F2328"/>
<rect x="281" y="40" width="15" height="6.44444" transform="rotate(-90 281 40)" fill="#96D2C3"/>
<rect x="289.444" y="40" width="15" height="6.44444" transform="rotate(-90 289.444 40)" fill="#93D2CB"/>
<rect x="297.889" y="40" width="15" height="6.44444" transform="rotate(-90 297.889 40)" fill="#93D1D4"/>
<rect x="306.333" y="40" width="15" height="6.44444" transform="rotate(-90 306.333 40)" fill="#94D0DB"/>
<rect x="314.778" y="40" width="15" height="6.44445" transform="rotate(-90 314.778 40)" fill="#97CFE1"/>
<rect x="323.222" y="40" width="15" height="6.44445" transform="rotate(-90 323.222 40)" fill="#9CCDE7"/>
<rect x="331.667" y="40" width="15" height="6.44445" transform="rotate(-90 331.667 40)" fill="#A1CCEC"/>
<rect x="340.111" y="40" width="15" height="6.44445" transform="rotate(-90 340.111 40)" fill="#A7CAF0"/>
<rect x="348.556" y="40" width="15" height="6.44445" transform="rotate(-90 348.556 40)" fill="#AFC8F3"/>
<rect x="357" y="40" width="15" height="6.44445" transform="rotate(-90 357 40)" fill="#B6C6F4"/>
<rect x="365.444" y="40" width="15" height="6.44445" transform="rotate(-90 365.444 40)" fill="#BEC3F5"/>
<rect x="373.889" y="40" width="15" height="6.44445" transform="rotate(-90 373.889 40)" fill="#C6C1F4"/>
<rect x="382.333" y="40" width="15" height="6.44445" transform="rotate(-90 382.333 40)" fill="#CFBFF2"/>
<rect x="390.778" y="40" width="15" height="6.44445" transform="rotate(-90 390.778 40)" fill="#D7BCEE"/>
<rect x="399.222" y="40" width="15" height="6.44445" transform="rotate(-90 399.222 40)" fill="#DFBAE9"/>
<rect x="407.667" y="40" width="15" height="6.44445" transform="rotate(-90 407.667 40)" fill="#E6B8E3"/>
<rect x="416.111" y="40" width="15" height="6.44445" transform="rotate(-90 416.111 40)" fill="#EDB6DB"/>
<rect x="424.556" y="40" width="15" height="6.44445" transform="rotate(-90 424.556 40)" fill="#F3B5D2"/>
</svg>
